<svg width="68" height="38" viewBox="0 0 68 38" fill="none" xmlns="http://www.w3.org/2000/svg">
<path d="M18.0117 5.96875C18.8203 7.87891 20.4258 9.625 22.5 9.625H45C47.0742 9.625 48.6797 7.87891 49.4883 5.96875C50.9062 2.60547 54.2461 0.25 58.125 0.25C63.3047 0.25 67.5 4.44531 67.5 9.625C67.5 13.1875 65.5078 16.293 62.5781 17.875C62.1562 18.0977 61.875 18.5195 61.875 19C61.875 19.4805 62.1562 19.9023 62.5781 20.125C65.5078 21.707 67.5 24.8125 67.5 28.375C67.5 33.5547 63.3047 37.75 58.125 37.75C54.2461 37.75 50.9062 35.3945 49.4883 32.0313C48.6797 30.1211 47.0742 28.375 45 28.375H22.5C20.4258 28.375 18.8203 30.1211 18.0117 32.0313C16.5938 35.3945 13.2539 37.75 9.375 37.75C4.19531 37.75 0 33.5547 0 28.375C0 24.8125 1.99219 21.707 4.92188 20.125C5.34375 19.9023 5.625 19.4805 5.625 19C5.625 18.5195 5.34375 18.0977 4.92188 17.875C1.99219 16.293 0 13.1875 0 9.625C0 4.44531 4.19531 0.25 9.375 0.25C13.2539 0.25 16.5938 2.60547 18.0117 5.96875Z" fill="white"/>
</svg>
