<svg width="60" height="53" viewBox="0 0 60 53" fill="none" xmlns="http://www.w3.org/2000/svg">
<path d="M5.57812 31.203L26.7539 50.9726C27.6328 51.7929 28.793 52.2499 30 52.2499C31.207 52.2499 32.3672 51.7929 33.2461 50.9726L54.4219 31.203C57.9844 27.8866 60 23.2343 60 18.371V17.6913C60 9.4999 54.082 2.51552 46.0078 1.16786C40.6641 0.277239 35.2266 2.02333 31.4062 5.84365L30 7.2499L28.5938 5.84365C24.7734 2.02333 19.3359 0.277239 13.9922 1.16786C5.91797 2.51552 0 9.4999 0 17.6913V18.371C0 23.2343 2.01562 27.8866 5.57812 31.203Z" fill="white"/>
</svg>
