<svg width="12" height="16" viewBox="0 0 12 16" fill="none" xmlns="http://www.w3.org/2000/svg">
<path d="M9.91882 1.39403C10.1032 0.965908 9.9657 0.465908 9.58757 0.190908C9.20945 -0.0840923 8.69382 -0.0590923 8.3407 0.247158L0.3407 7.24716C0.0281997 7.52216 -0.0843003 7.96278 0.0625747 8.35028C0.20945 8.73778 0.58445 9.00028 1.00007 9.00028H4.48445L2.08132 14.6065C1.89695 15.0347 2.03445 15.5347 2.41257 15.8097C2.7907 16.0847 3.30632 16.0597 3.65945 15.7534L11.6594 8.75341C11.9719 8.47841 12.0844 8.03778 11.9376 7.65028C11.7907 7.26278 11.4188 7.00341 11.0001 7.00341H7.5157L9.91882 1.39403Z" fill="#ED6109"/>
</svg>
