<svg width="60" height="54" viewBox="0 0 60 54" fill="none" xmlns="http://www.w3.org/2000/svg">
<path d="M26.5429 7.88717C28.2187 12.9145 26.5077 17.9887 22.7226 19.2309C18.9374 20.4731 14.5077 17.4028 12.8319 12.3755C11.1562 7.34811 12.8671 2.27389 16.6523 1.0317C20.4374 -0.210487 24.8671 2.85982 26.5429 7.88717ZM11.7655 20.2739C13.9804 24.0708 13.4413 28.4887 10.5702 30.1294C7.69913 31.77 3.57413 30.0239 1.37101 26.227C-0.832119 22.4301 -0.316494 18.0122 2.5546 16.3715C5.42569 14.7309 9.55069 16.477 11.7538 20.2739H11.7655ZM8.10929 44.0161C14.2499 27.4575 25.1601 23.2505 29.9999 23.2505C34.8398 23.2505 45.7499 27.4575 51.8905 44.0161C52.3124 45.1528 52.4999 46.3715 52.4999 47.5903V47.7778C52.4999 50.8012 50.0507 53.2505 47.0273 53.2505C45.6796 53.2505 44.3437 53.0864 43.0429 52.7583L32.7304 50.1801C30.9374 49.7348 29.0624 49.7348 27.2694 50.1801L16.9569 52.7583C15.6562 53.0864 14.3202 53.2505 12.9726 53.2505C9.94913 53.2505 7.49991 50.8012 7.49991 47.7778V47.5903C7.49991 46.3715 7.68741 45.1528 8.10929 44.0161ZM49.4296 30.1294C46.5585 28.4887 46.0194 24.0708 48.2343 20.2739C50.4491 16.477 54.5624 14.7309 57.4335 16.3715C60.3046 18.0122 60.8437 22.4301 58.6288 26.227C56.414 30.0239 52.3007 31.77 49.4296 30.1294ZM36.3398 19.2309C32.5546 17.9887 30.8437 12.9145 32.5194 7.88717C34.1952 2.85982 38.6249 -0.210487 42.4101 1.0317C46.1952 2.27389 47.9062 7.34811 46.2304 12.3755C44.5546 17.4028 40.1249 20.4731 36.3398 19.2309Z" fill="white"/>
</svg>
